<?xml version="1.0" encoding="utf-8"?>
<svg version="1.1" viewBox="0 0 1608 1392" width="402" height="348" xmlns="http://www.w3.org/2000/svg">
  <path transform="translate(522,795)" d="M -1.174 -0.662 L 9 3 L 35 12 L 52 18 L 79 27 L 174 61 L 211 72 L 229 76 L 236 77 L 263 77 L 282 74 L 313 66 L 349 54 L 398 36 L 413.199 31.212 L 404 62 L 392 100 L 380 135 L 362 184 L 354.167 205.071 L 372 197 L 393 187 L 413 175 L 429 164 L 445 152 L 465 134 L 474 124 L 486 110 L 497 95 L 507 81 L 512.178 72.564 L 521 70 L 550.765 61.352 L 555 60 L 552.355 66 L 538 94 L 526 113 L 512 131 L 503 142 L 492 154 L 473 173 L 462 182 L 448 193 L 438 200 L 421 210 L 396 223 L 365 236 L 341.602 242.628 L 339 251 L 329 280 L 320 305 L 308 341 L 290 393 L 273 440 L 261 476 L 255 496 L 252 500 L 243 478 L 236 457 L 227 432 L 215 399 L 204 363 L 186 313 L 171 271 L 157 228 L 146 198 L 131 155 L 119 119 L 124 120 L 158 133 L 161 135 L 173 174 L 187 212 L 197 241 L 210 277 L 222 313 L 237 356 L 246 381 L 251 397 L 251 399 L 253 398 L 263 365 L 273 337 L 284 306 L 298 265 L 311 227 L 318 207 L 330 173 L 347 125 L 358.353 92 L 361 85 L 321 99 L 302 106 L 279 111 L 268.404 112.423 L 248 113 L 232 112 L 207 107 L 161 92 L 125 79 L 20.313 41.793 L 14.759 39.732 L 10.107 37.715 L 3 15 L -0.089 3.357 L -1.174 -0.662 Z" style=""/>
  <path transform="translate(775,138)" d="M 0 0 L 5.469 16.016 L 14 41 L 32 93 L 50 143 L 64 185 L 79 227 L 96 276 L 112.653 325.837 L 122 351 L 131.675 379.944 L 127.102 378.51 L 102 371 L 92.429 368.434 L 90.49 362.918 L 80 335 L 64 289 L 52 253 L 36 206 L 23 171 L 12 139 L 6 120 L -0.56 98.975 L -9 124 L -18 148 L -29 178 L -46 230 L -60 270 L -76 314 L -90 357 L -108 405.776 L -111 414 L -87 406 L -53 394 L -36 390 L -19 388 L -1.846 386.859 L 18 388 L 39 391 L 60 397 L 93.668 407.288 L 118.283 416.62 L 138.999 424.495 L 164 434 L 200 446 L 226.265 456.326 L 239 462 L 244.291 475.175 L 247.212 484.958 L 249.755 493.449 L 252 501 L 240.674 496.816 L 212 486 L 159 468 L 106 449 L 66 435 L 40 427 L 15 422 L 5 421 L -10 421 L -31 424 L -52 430 L -101 446 L -131.64 456.557 L -148.716 463.063 L -158.001 466.733 L -165.219 469.539 L -161.182 457.883 L -143 405 L -126 355 L -107 301 L -104.51 294.021 L -114 298 L -146 314 L -170 329 L -184 339 L -198 350 L -210 361 L -223 374 L -231 384 L -241 397 L -254.093 413.026 L -265.601 428.825 L -286.386 434.545 L -298.048 438.434 L -307.435 441.545 L -303 432 L -290 409 L -282 395 L -270 378 L -261 366 L -250 354 L -243 346 L -235 338 L -227 331 L -216 321 L -199 308 L -185 298 L -172 290 L -156 281 L -131 269 L -113 262 L -92.123 255.674 L -78 216 L -60 164 L -35 92 L -24.906 63.844 L -16 39 L -5.184 12.387 L 0 0 Z" style=""/>
  <path transform="translate(1140,641)" d="M -0.674 0 L 26 10 L 55 20 L 91 32 L 140 49 L 182 64 L 206 73 L 211.572 75.856 L 194 82 L 166.84 91.374 L 137 102 L 92 118 L 63 127 L -27 159 L -68 173 L -121 191 L -150.245 201.51 L -167.778 207.654 L -165.504 198.966 L -161.544 184 L -158 169 L -122 156 L -68 137 L -25 122 L 10 110 L 63 91 L 105.198 75.519 L 109 74 L 104 72.412 L 31.037 46.257 L 13 39 L 8.295 36.823 L 4.225 21 L 0 4 L -0.674 0 Z" style=""/>
  <path d="M 553 590 L 573 583 L 568.219 601 L 563 620 L 547.794 626.507 L 524 636 L 484.859 649.81 L 452 662 L 416 674 L 363 692 L 323 707 L 297.793 715.606 L 329 728 L 355 737 L 385 748 L 398.095 753.085 L 400.592 761.438 L 403.05 770.562 L 405.82 781.333 L 408.004 790.305 L 399.421 787.66 L 376 780 L 333 765 L 297 753 L 269 743 L 236 731 L 213 722 L 198 717 L 197 715 L 245 698 L 281 685 L 306 676 L 356 659 L 441 629 L 492 612 L 528 599 L 553 590 Z" style=""/>
  <path transform="translate(913,413)" d="M 0 0 L 20.755 9.72 L 42 21 L 54 29 L 68 40 L 79 50 L 87 57 L 103 72 L 112 82 L 122 93 L 134 109 L 145 126 L 158 150 L 169 172 L 177 193 L 183 211 L 189 238 L 193 265 L 194 285 L 194 312 L 161.674 324.204 L 161.455 295.694 L 158 268 L 154 241 L 149 218 L 142 195 L 131 170 L 122 153 L 111 136 L 100 120 L 87 104 L 78 94 L 63 79 L 52 70 L 39 60 L 21.326 47.102 L 11.933 41.144 L 8 28 L 0 0 Z" style=""/>
  <path transform="translate(473,697)" d="M 0 0 L 1 34 L 4 66 L 9 90 L 14 108 L 24 136 L 34 159 L 45 178 L 59 198 L 70 212 L 83 227 L 92 237 L 106 249 L 122 261 L 139 273 L 147 279 L 159 312 L 163 321 L 163 324 L 158 322 L 135 310 L 117 299 L 98 286 L 87 277 L 77 268 L 47 238 L 36 224 L 27 212 L 11 186 L 1 168 L -8 149 L -17 124 L -25 93 L -30 65 L -32 49 L -33 35 L -33.033 11.393 L -26.993 8.683 L -19.645 5.855 L -13.384 3.707 L -7.602 1.855 L 0 0 Z" style=""/>
  <path transform="translate(1028,500)" d="m0 0 7 6 12 16 11 17 13 24 11 22 8 21 6 18 3 13v3l-5-2-3-3-1-8v-5h-2l-2-4-2-8-3-7-3-6-3-9-8-17-6-11-2-2-2-7-3-1-2-6-2-4h-2v-3l-2-1-2-4-2-1v-4l-3-3-1-3-4-4-3-5-4-4v-2l3-2z" style=""/>
  <path transform="translate(497,902)" d="m0 0 4 4 7 10 2 1v2l3 1v3l4 2 1 3h2l1 4 7 8-1 2-7-7-11-14-9-12-3-5z" style=""/>
</svg>